<svg xmlns="http://www.w3.org/2000/svg" width="17.801" height="17.9" viewBox="0 0 17.801 17.9">
  <g fill="#5a80fb"><path id="Account_icon" data-name="Account icon" d="M13.1,8.8A5.478,5.478,0,0,0,8.8-.1,5.343,5.343,0,0,0,3.5,5.5,5.431,5.431,0,0,0,4.7,8.9,8.854,8.854,0,0,0,0,16.7a1.049,1.049,0,0,0,1.1,1.1H16.7a1.049,1.049,0,0,0,1.1-1.1A9.129,9.129,0,0,0,13.1,8.8Zm2.7,7.1ZM8.9,2.2a3.159,3.159,0,0,1,3.2,3.2,3.2,3.2,0,1,1-6.4,0A3.159,3.159,0,0,1,8.9,2.2ZM2.1,15.9Zm4.6-5.5a5.45,5.45,0,0,0,2.2.5,5.45,5.45,0,0,0,2.2-.5,6.627,6.627,0,0,1,4.4,5.5H2.3A7.125,7.125,0,0,1,6.7,10.4Z" transform="translate(0 0.1)"/>
</g></svg>
