<?xml version="1.0" encoding="iso-8859-1"?>
<!DOCTYPE svg PUBLIC "-//W3C//DTD SVG 1.1//EN" "http://www.w3.org/Graphics/SVG/1.1/DTD/svg11.dtd">
<svg 
 version="1.1" xmlns="http://www.w3.org/2000/svg" xmlns:xlink="http://www.w3.org/1999/xlink" x="0px" y="0px" width="512px"
	 height="512px" viewBox="0 0 512 512" enable-background="new 0 0 512 512" xml:space="preserve"
><g id="b75708d097f2188dff6617b0f00ccde4"><g></g><path display="inline" d="M511.5,369.01h-68.832v110.553h-75.244V369.01h-68.841l106.459-128.979L511.5,369.01z M333.357,403.077
		h-34.774c-13.19,0-25.192-7.614-30.814-19.546c-5.622-11.931-3.854-26.034,4.541-36.206l54.356-65.854
		c-25.139-10.861-57.887-25.053-61.617-26.677V235.64c0-1.443,0.445-3.782,1.368-7.023c0.906-3.152,1.917-6.479,3.02-9.979
		c1.26-4.002,2.636-8.3,4.096-12.823c5.281-9.893,9.444-20.967,12.463-33.304c3.011-12.338,4.521-25.315,4.521-39.021
		c0-18.607-1.95-34.393-5.889-47.235c-3.946-12.889-9.314-23.286-16.172-31.239c-6.846-7.937-14.775-13.671-23.824-17.239
		c-9.032-3.589-18.651-5.339-28.881-5.339c-10.417,0-20.127,1.805-29.155,5.477c-9.053,3.639-16.946,9.496-23.683,17.535
		c-6.774,8.022-12.105,18.418-16.052,31.208c-3.909,12.769-5.889,28.382-5.889,46.833c0,14.054,1.568,27.344,4.67,39.853
		c3.102,12.511,7.311,23.67,12.6,33.528c1.451,4.212,2.753,8.145,3.826,11.767c0.927,3.117,1.775,6.169,2.62,9.184
		c0.811,3.013,1.41,5.265,1.763,6.704v18.36c-5.66,2.549-125.151,53.212-128.989,54.477c-7.489,2.757-13.586,6.898-18.343,12.492
		c-4.741,5.568-8.496,11.215-11.236,17.104C4.596,343.716,2.155,350.84,0.5,358.32v63.497h332.857V403.077z"></path></g></svg>